<?xml version="1.0" encoding="UTF-8"?>
<svg id="Layer_2" data-name="Layer 2" xmlns="http://www.w3.org/2000/svg" viewBox="0 0 160 160">
  <defs>
    <style>
      .cls-1 {
        stroke: #000;
        stroke-miterlimit: 10;
        stroke-width: 2px;
      }
    </style>
  </defs>
  <g>
    <path class="cls-1" d="M109.66,150.66c-3.83,0-7.36-.37-11.87-1.54-7.05-1.84-9.81-3.96-13.01-6.42-2.76-2.13-5.89-4.53-12.8-7.52-4.98-2.15-8.81-3.36-12.2-4.43-5.75-1.82-9.9-3.13-14.91-7.57-6.03-5.34-12.83-13.52-11-22.12,1.02-4.8,3.58-7.32,6.55-10.23,1.78-1.74,3.79-3.72,5.93-6.58,5.86-7.82,10.45-14.75,16.15-32.82,4.12-13.08,7.19-26.73,9.12-40.56.14-.97,1.03-1.65,2.01-1.51.97.14,1.65,1.03,1.51,2.01-1.96,14.02-5.07,27.86-9.25,41.13-5.85,18.57-10.81,26.05-16.69,33.88-2.3,3.07-4.42,5.15-6.28,6.98-2.87,2.82-4.77,4.68-5.56,8.43-.81,3.82.25,10.18,9.88,18.72,4.44,3.94,8.09,5.09,13.62,6.84,3.29,1.04,7.4,2.34,12.54,4.56,7.32,3.16,10.78,5.83,13.56,7.97,3.13,2.41,5.39,4.14,11.74,5.8,6.97,1.82,11.32,1.55,19.2,1.08,2.96-.18,6.32-.38,10.46-.52h.07c1.12,0,4.32.03,17.73-2.06,3.12-.49,4.45-2.87,4.96-4.25.03-.09.06-.19.07-.2.17-.6.13-1.33-.14-2.2-1.34-4.34-2.88-4.66-9.34-5.98-3.86-.79-9.14-1.88-16.48-4.41-1.73-.6-3.26-1.1-4.6-1.53-10.89-3.56-11.14-4.17-17.47-19.91-2.3-5.72-5.45-13.57-10.27-24.45-3.28-7.42-1.86-10.24,15.47-44.84l3.74-7.47c.44-.88,1.51-1.23,2.38-.79.88.44,1.23,1.51.79,2.38l-3.74,7.47c-16.64,33.21-18,35.92-15.4,41.81,4.84,10.94,8,18.81,10.31,24.56,3.05,7.6,4.59,11.41,6.44,13.55,1.72,1.99,3.95,2.72,8.84,4.31,1.36.44,2.89.94,4.66,1.55,7.11,2.45,12.27,3.51,16.03,4.29,6.7,1.37,10.06,2.07,12.02,8.42.48,1.56.53,2.95.16,4.25,0,0-.07.23-.15.45-1.34,3.58-4.16,5.96-7.75,6.52-13.7,2.13-17,2.11-18.24,2.1-4.08.13-7.41.33-10.35.51-3.2.19-5.89.36-8.44.36Z"/>
    <path class="cls-1" d="M109.66,151.14c-4.22,0-7.81-.47-12-1.56-7.14-1.86-9.94-4.01-13.18-6.5-2.74-2.11-5.85-4.5-12.7-7.46-4.94-2.14-8.76-3.34-12.13-4.41-5.83-1.84-10.02-3.16-15.1-7.67-6.12-5.43-13.03-13.75-11.15-22.58,1.05-4.94,3.66-7.51,6.68-10.48,1.76-1.73,3.76-3.69,5.88-6.52,5.83-7.78,10.4-14.67,16.07-32.68,4.11-13.06,7.18-26.68,9.1-40.48.17-1.23,1.32-2.1,2.55-1.93.6.08,1.13.39,1.49.88s.52,1.08.44,1.67c-1.96,14.05-5.08,27.92-9.27,41.21-5.88,18.65-10.86,26.15-16.77,34.03-2.33,3.1-4.45,5.19-6.33,7.03-2.81,2.76-4.66,4.58-5.43,8.19-.78,3.7.27,9.87,9.73,18.26,4.36,3.87,7.98,5.01,13.44,6.74,3.31,1.04,7.42,2.34,12.58,4.58,7.38,3.19,10.86,5.87,13.66,8.03,3.08,2.37,5.31,4.08,11.56,5.72,6.89,1.8,11.2,1.53,19.03,1.06,2.98-.18,6.33-.38,10.5-.52h.1c1.06,0,4.32.02,17.63-2.05,2.88-.45,4.11-2.66,4.59-3.94.03-.08.05-.15.05-.16.15-.51.1-1.14-.14-1.93-1.26-4.07-2.59-4.34-8.98-5.65-3.87-.79-9.17-1.88-16.54-4.42-1.69-.58-3.18-1.07-4.5-1.5-11.2-3.66-11.58-4.59-17.86-20.22-2.3-5.73-5.45-13.57-10.26-24.43-3.37-7.62-1.95-10.46,15.48-45.25l3.74-7.47c.56-1.11,1.92-1.57,3.03-1.01.54.27.94.73,1.13,1.31s.15,1.19-.12,1.73l-3.74,7.47c-16.55,33.02-17.9,35.72-15.39,41.4,4.83,10.92,7.99,18.78,10.3,24.53,3.05,7.6,4.58,11.38,6.37,13.46,1.64,1.89,3.83,2.6,8.62,4.17,1.36.44,2.9.95,4.66,1.56,7.08,2.44,12.22,3.5,15.97,4.27,6.68,1.37,10.35,2.12,12.39,8.75.51,1.65.56,3.13.16,4.52,0,0,0,0,0,0,0,0-.07.24-.16.48-1.4,3.75-4.36,6.24-8.13,6.83-13.72,2.14-17.05,2.12-18.31,2.11-4.07.13-7.39.33-10.32.51-3.16.19-5.9.36-8.47.36ZM73.37,9.82c-.64,0-1.19.47-1.28,1.11-1.93,13.85-5.01,27.53-9.14,40.63-5.72,18.15-10.33,25.11-16.22,32.97-2.17,2.89-4.19,4.88-5.98,6.63-2.91,2.86-5.43,5.33-6.41,9.99-1.78,8.37,4.92,16.4,10.85,21.66,4.93,4.37,9.04,5.67,14.73,7.47,3.42,1.08,7.26,2.29,12.25,4.45,6.96,3.01,10.12,5.44,12.9,7.58,3.16,2.43,5.89,4.53,12.84,6.34,4.1,1.07,7.62,1.52,11.75,1.52,2.55,0,5.27-.17,8.41-.36,2.94-.18,6.27-.38,10.36-.51,1.25.01,4.53.03,18.18-2.09,3.41-.53,6.09-2.79,7.37-6.21.07-.19.13-.38.13-.4.35-1.21.3-2.51-.15-3.98-1.88-6.08-4.94-6.71-11.66-8.08-3.78-.78-8.95-1.84-16.09-4.3-1.76-.61-3.29-1.11-4.64-1.55-4.97-1.62-7.24-2.36-9.05-4.46-1.9-2.2-3.45-6.04-6.52-13.68-2.33-5.79-5.49-13.64-10.31-24.55-2.69-6.09-1.33-8.82,15.41-42.21l3.74-7.47c.15-.31.18-.66.07-.99-.11-.33-.34-.59-.65-.75-.64-.32-1.42-.06-1.74.58l-3.74,7.47c-17.24,34.41-18.65,37.22-15.46,44.42,4.81,10.88,7.97,18.73,10.27,24.45,6.37,15.85,6.49,16.16,17.17,19.64,1.41.46,2.91.95,4.61,1.54,7.31,2.52,12.57,3.6,16.42,4.39,6.53,1.34,8.28,1.7,9.71,6.31.3.97.35,1.78.15,2.48,0,.01-.04.13-.08.23-.55,1.47-1.98,4.03-5.34,4.55-13.39,2.09-16.58,2.06-17.79,2.06-4.22.13-7.56.34-10.51.52-7.95.48-12.31.75-19.36-1.09-6.45-1.68-8.74-3.44-11.91-5.88-2.76-2.12-6.19-4.77-13.46-7.91-5.12-2.21-9.21-3.5-12.49-4.54-5.59-1.76-9.28-2.93-13.79-6.94-9.81-8.7-10.87-15.24-10.04-19.19.83-3.89,2.76-5.8,5.7-8.68,1.85-1.82,3.95-3.88,6.24-6.93,5.85-7.8,10.79-15.24,16.62-33.74,4.17-13.24,7.28-27.06,9.23-41.05.05-.34-.04-.68-.25-.96-.21-.28-.51-.45-.85-.5-.06,0-.12-.01-.18-.01Z"/>
  </g>
  <g>
    <path class="cls-1" d="M55.39,114.85c-.23,0-.46-.04-.68-.14-4.78-1.99-7.87-6.62-7.87-11.8s3.09-9.81,7.87-11.8c.91-.38,1.95.05,2.32.96.38.91-.05,1.95-.96,2.32-3.45,1.44-5.68,4.78-5.68,8.52s2.23,7.08,5.68,8.52c.91.38,1.33,1.42.96,2.32-.28.68-.95,1.09-1.64,1.09Z"/>
    <path class="cls-1" d="M55.39,115.33c-.3,0-.59-.06-.87-.17-4.96-2.07-8.17-6.87-8.17-12.25s3.2-10.18,8.16-12.25c1.15-.48,2.48.07,2.96,1.22.48,1.15-.07,2.48-1.22,2.96-3.27,1.36-5.38,4.53-5.38,8.07s2.11,6.71,5.38,8.07c1.15.48,1.7,1.81,1.22,2.96-.35.85-1.17,1.39-2.09,1.39ZM55.38,91.46c-.17,0-.33.03-.5.1-4.6,1.91-7.57,6.37-7.57,11.35s2.97,9.44,7.57,11.35c.65.27,1.42-.06,1.69-.7.27-.66-.04-1.42-.7-1.69-3.63-1.51-5.98-5.03-5.98-8.97s2.35-7.45,5.98-8.97c.66-.27.97-1.03.7-1.69-.21-.5-.69-.8-1.2-.8Z"/>
  </g>
  <g>
    <path class="cls-1" d="M31.99,85.77c-.6,0-1.19-.31-1.53-.87l-9.44-15.81c-.5-.84-.23-1.93.61-2.44.84-.5,1.93-.23,2.44.61l9.44,15.81c.5.84.23,1.93-.61,2.44-.29.17-.6.25-.91.25Z"/>
    <path class="cls-1" d="M31.99,86.26c-.79,0-1.54-.42-1.94-1.1l-9.44-15.81c-.64-1.07-.29-2.46.78-3.1,1.07-.64,2.46-.29,3.1.78l9.44,15.81c.31.52.4,1.13.25,1.71-.15.59-.51,1.08-1.03,1.39-.35.21-.75.32-1.16.32ZM22.55,66.89c-.23,0-.45.06-.66.18-.61.37-.81,1.16-.45,1.77l9.44,15.81c.35.59,1.18.8,1.77.45.61-.37.81-1.16.45-1.77l-9.44-15.81c-.24-.4-.67-.63-1.11-.63Z"/>
  </g>
  <g>
    <path class="cls-1" d="M26.16,95.6c-.15,0-.31-.02-.47-.06l-17.45-4.72c-.95-.26-1.51-1.23-1.25-2.18.26-.95,1.23-1.51,2.18-1.25l17.45,4.72c.95.26,1.51,1.23,1.25,2.18-.21.79-.93,1.31-1.71,1.31Z"/>
    <path class="cls-1" d="M26.16,96.08c-.2,0-.4-.03-.59-.08l-17.44-4.72c-.58-.16-1.07-.53-1.37-1.06-.3-.52-.38-1.13-.22-1.72.32-1.2,1.57-1.92,2.77-1.59l17.45,4.72c.58.16,1.07.53,1.37,1.06.3.52.38,1.13.22,1.72-.27.98-1.16,1.67-2.18,1.67ZM8.71,87.81c-.57,0-1.1.38-1.25.96-.09.33-.04.68.13.98.17.3.45.51.78.6l17.45,4.72c.7.19,1.41-.24,1.59-.91.09-.33.04-.68-.13-.98-.17-.3-.45-.51-.78-.6l-17.45-4.72c-.11-.03-.23-.04-.34-.04Z"/>
  </g>
  <g>
    <path class="cls-1" d="M6.95,111.77c-.8,0-1.52-.54-1.72-1.35-.24-.95.34-1.92,1.29-2.15l18.06-4.52c.95-.24,1.92.34,2.15,1.29s-.34,1.92-1.29,2.15l-18.06,4.52c-.14.04-.29.05-.43.05Z"/>
    <path class="cls-1" d="M6.95,112.26c-1.04,0-1.94-.7-2.19-1.71-.15-.59-.06-1.19.25-1.71.31-.52.8-.88,1.39-1.03l18.06-4.52c.58-.15,1.19-.06,1.71.25.52.31.89.8,1.03,1.39.15.59.06,1.19-.25,1.71-.31.52-.8.88-1.39,1.03l-18.06,4.52c-.18.04-.36.07-.55.07ZM25.01,104.19c-.11,0-.21.01-.32.04l-18.06,4.52c-.33.08-.62.29-.8.59s-.23.64-.15.98c.17.68.9,1.11,1.57.94l18.06-4.52c.34-.08.62-.29.8-.59s.23-.64.15-.98c-.08-.34-.29-.62-.59-.8-.2-.12-.43-.18-.66-.18Z"/>
  </g>
</svg>