<?xml version="1.0" encoding="UTF-8"?>
<svg id="Layer_1" data-name="Layer 1" xmlns="http://www.w3.org/2000/svg" viewBox="0 0 160 160">
  <defs>
    <style>
      .cls-1 {
        stroke: #000;
        stroke-miterlimit: 10;
        stroke-width: 2px;
      }
    </style>
  </defs>
  <path class="cls-1" d="M104.15,145.81c-.81,0-1.57-.51-1.84-1.31-5.61-16.19-7.99-27.32-7.28-34.04l.02-.2c.08-.78.34-3.14.51-6.26.3-5.69.11-9.98.02-11.81l-.02-.58c-.02-.58-.02-1.18,0-1.78-.92,2.45-1.74,4.93-2.45,7.45-3.67,12.99-4.5,27-2.39,40.52.17,1.06-.56,2.06-1.63,2.23-1.05.17-2.06-.56-2.23-1.63-2.2-14.07-1.34-28.65,2.49-42.18,2.85-10.07,7.29-19.61,13.2-28.34.58-.86,1.73-1.11,2.62-.58.89.53,1.2,1.67.72,2.59-4.49,8.46-6.65,15.72-6.43,21.57l.02.55c.09,1.89.29,6.31-.03,12.19-.17,3.23-.44,5.67-.52,6.47l-.02.18c-.63,6.05,1.75,16.93,7.09,32.35.35,1.02-.19,2.13-1.21,2.48-.21.07-.43.11-.64.11Z"/>
  <path class="cls-1" d="M113.24,146.88c-.99,0-1.84-.75-1.94-1.76l-3.08-31.42c-.01-.14-.01-.27,0-.41.84-7.42,2.88-14.43,6.08-20.84,2.53-5.06,5.03-8.26,7.05-10.83,2.05-2.62,3.53-4.51,4.32-7.28,2.17-7.65-2.5-17.68-13.85-29.82-.74-.79-.69-2.02.09-2.76.79-.73,2.02-.7,2.76.09,12.53,13.4,17.36,24.38,14.76,33.56-.99,3.51-2.85,5.88-5,8.62-2.01,2.56-4.28,5.46-6.63,10.17-2.96,5.94-4.87,12.45-5.67,19.34l3.06,31.22c.1,1.07-.68,2.03-1.75,2.13-.06,0-.13,0-.19,0Z"/>
  <path class="cls-1" d="M54.72,126.96h-11.42c-.55,0-1.08-.23-1.45-.64l-8.69-9.63c-.49-.54-.63-1.3-.38-1.98.79-2.14,1.31-4.37,1.56-6.63.22-2.02.23-4.06.02-6.08-6.25-6.09-17.54-19.22-24.56-32.08-3.27-6-5.17-10.5-6.15-14.59-1.09-4.55.4-9.31,3.89-12.43,5.84-5.21,13.76-10.17,22.3-13.97,9-4.01,18.54-6.68,28.38-7.93,5.7-.72,11.4-.33,16.93,1.18l3.2.87c8.38,2.28,12.24,3.28,15.73,3.15,1.35-.05,2.72-.21,4.07-.47,1.93-.38,3.75-1.28,5.26-2.61l15.69-13.8c5.85-5.15,13.67-7.13,20.91-5.29,5,1.27,9.4,4.17,12.38,8.16,2.34,3.13,3.79,6.89,4.21,10.88.73,6.98-2.07,14.13-7.47,19.11l-8.88,8.18c-.67.62-1.68.69-2.43.17l-3.5-2.4-5.56,4.34c-.85.66-2.08.51-2.74-.34-.66-.85-.51-2.08.34-2.74l6.69-5.21c.67-.52,1.6-.55,2.3-.07l3.4,2.33,7.73-7.12c4.51-4.15,6.84-10.07,6.24-15.83-.34-3.29-1.54-6.39-3.45-8.95-2.45-3.28-6.07-5.66-10.21-6.71-5.98-1.52-12.48.14-17.37,4.44l-15.69,13.8c-2.03,1.78-4.48,3-7.09,3.51-1.55.3-3.12.48-4.67.54-4.23.16-8.73-1.07-16.89-3.29l-3.2-.87c-5.04-1.37-10.22-1.73-15.41-1.07-9.46,1.2-18.63,3.77-27.28,7.62-8.18,3.64-15.74,8.38-21.29,13.32-2.42,2.16-3.45,5.45-2.69,8.61.9,3.75,2.68,7.95,5.78,13.63,7,12.82,18.39,25.93,24.34,31.61.32.31.53.72.59,1.16.33,2.55.36,5.13.07,7.69-.24,2.18-.71,4.33-1.39,6.42l7.34,8.13h10.55c2.06,0,3.86-1.47,4.26-3.49l.97-4.84c.08-.42-.1-.72-.21-.86-.11-.14-.37-.38-.79-.4l-10.08-.27c-.48-.01-.94-.2-1.29-.53l-5.08-4.81c-.52-.5-.73-1.24-.54-1.94l5.54-20.06c-.07-5.81-.41-11.69-1.02-17.46-.45-4.23-1.04-8.49-1.77-12.67-.63-3.59-.49-7.22.42-10.77l1.77-6.93c.27-1.04,1.33-1.68,2.37-1.41,1.04.27,1.67,1.33,1.41,2.37l-1.77,6.93c-.77,3.01-.89,6.09-.36,9.13.75,4.27,1.36,8.62,1.81,12.93.63,5.99.98,12.08,1.05,18.1,0,.18-.02.36-.07.54l-5.3,19.2,3.69,3.49,9.33.25c1.46.04,2.83.72,3.74,1.86.91,1.14,1.27,2.63.99,4.06l-.97,4.85c-.77,3.84-4.17,6.63-8.09,6.63Z"/>
  <path class="cls-1" d="M45.97,100.68c-.59,0-1.17-.27-1.56-.77-3.86-5.08-13.33-18.39-17.78-32.23-1.35-4.19-1.58-6.04-1.9-8.6-.1-.8-.21-1.68-.37-2.74-.15-.97.45-1.9,1.4-2.17l19.42-5.52c1.03-.29,2.12.31,2.41,1.35.29,1.04-.31,2.12-1.35,2.41l-17.78,5.05c.05.4.1.77.14,1.13.31,2.44.51,4.05,1.75,7.9,4.26,13.27,13.42,26.14,17.17,31.06.65.86.49,2.08-.37,2.74-.35.27-.77.4-1.18.4Z"/>
  <path class="cls-1" d="M58.01,103.29c-1.08,0-1.95-.87-1.95-1.95v-11.63c0-1.08.87-1.95,1.95-1.95s1.95.87,1.95,1.95v11.63c0,1.08-.87,1.95-1.95,1.95Z"/>
  <path class="cls-1" d="M67.64,108.37c-.49,0-.98-.18-1.36-.55-.78-.75-.8-1.99-.05-2.76l8.02-8.29c.75-.78,1.99-.8,2.76-.05.78.75.8,1.99.05,2.76l-8.02,8.29c-.38.4-.89.59-1.4.59Z"/>
  <path class="cls-1" d="M82.48,117.6h-11.77c-1.08,0-1.95-.87-1.95-1.95s.87-1.95,1.95-1.95h11.77c1.08,0,1.95.87,1.95,1.95s-.87,1.95-1.95,1.95Z"/>
  <path class="cls-1" d="M30.07,126.96h-15.91c-1.08,0-1.95-.87-1.95-1.95s.87-1.95,1.95-1.95h15.91c1.08,0,1.95.87,1.95,1.95s-.87,1.95-1.95,1.95Z"/>
  <path class="cls-1" d="M22.71,147.95c-.51,0-1.01-.2-1.4-.59-.75-.77-.74-2.01.03-2.76l11.23-10.96c.77-.75,2.01-.74,2.76.03.75.77.74,2.01-.03,2.76l-11.23,10.96c-.38.37-.87.56-1.36.56Z"/>
  <path class="cls-1" d="M43.71,156.64c-1.08,0-1.95-.87-1.95-1.95v-15.38c0-1.08.87-1.95,1.95-1.95s1.95.87,1.95,1.95v15.38c0,1.08-.87,1.95-1.95,1.95Z"/>
  <path class="cls-1" d="M64.56,147.95c-.37,0-.75-.11-1.08-.33-.2-.13-.56-.37-11.39-11.21-.76-.76-.76-2,0-2.76s2-.76,2.76,0c3.87,3.87,10.2,10.17,10.92,10.81.8.62.99,1.77.42,2.62-.38.56-1,.87-1.63.87Z"/>
</svg>