<?xml version="1.0" encoding="UTF-8"?>
<svg id="Layer_1" data-name="Layer 1" xmlns="http://www.w3.org/2000/svg" viewBox="0 0 160 160">
  <path d="M104.73,147.42c-.83,0-1.6-.52-1.89-1.35-5.74-16.58-8.18-27.99-7.46-34.87l.02-.2c.09-.79.35-3.21.52-6.41.31-5.83.11-10.22.02-12.1l-.03-.6c-.02-.6-.03-1.21,0-1.83-.94,2.51-1.78,5.05-2.51,7.64-3.76,13.31-4.61,27.66-2.45,41.51.17,1.09-.58,2.11-1.67,2.28-1.08.18-2.11-.57-2.28-1.67-2.25-14.41-1.37-29.35,2.55-43.21,2.92-10.32,7.47-20.09,13.52-29.04.59-.88,1.78-1.14,2.69-.59.91.55,1.23,1.71.74,2.65-4.6,8.67-6.81,16.1-6.58,22.1l.03.57c.09,1.93.3,6.46-.03,12.49-.18,3.31-.45,5.81-.54,6.63l-.02.19c-.65,6.19,1.79,17.34,7.26,33.14.36,1.04-.19,2.18-1.24,2.54-.22.08-.44.11-.65.11Z"/>
  <path d="M114.05,148.52c-1.02,0-1.89-.77-1.99-1.8l-3.15-32.19c-.01-.14-.01-.28,0-.42.86-7.6,2.95-14.78,6.22-21.35,2.59-5.19,5.16-8.47,7.22-11.1,2.1-2.68,3.62-4.62,4.42-7.46,2.22-7.83-2.56-18.11-14.19-30.55-.75-.81-.71-2.07.09-2.83.81-.75,2.07-.71,2.83.09,12.84,13.73,17.78,24.97,15.12,34.38-1.02,3.6-2.92,6.02-5.12,8.83-2.05,2.62-4.38,5.59-6.79,10.42-3.04,6.09-4.99,12.75-5.81,19.81l3.13,31.98c.11,1.1-.7,2.08-1.79,2.19-.07,0-.13,0-.2,0Z"/>
  <path d="M54.1,128.11h-11.7c-.57,0-1.11-.24-1.48-.66l-8.9-9.86c-.5-.55-.65-1.33-.39-2.03.8-2.19,1.34-4.47,1.6-6.79.23-2.07.24-4.16.02-6.23-6.4-6.24-17.97-19.69-25.16-32.86-3.35-6.14-5.3-10.75-6.3-14.95-1.11-4.66.41-9.54,3.99-12.73,5.98-5.33,14.09-10.42,22.84-14.32,9.22-4.11,19-6.84,29.07-8.12,5.84-.74,11.67-.34,17.34,1.21l3.28.89c8.59,2.33,12.53,3.36,16.11,3.23,1.38-.05,2.78-.21,4.17-.48,1.98-.39,3.84-1.31,5.38-2.67l16.07-14.14c6-5.28,14-7.3,21.42-5.42,5.13,1.3,9.63,4.27,12.68,8.36,2.39,3.21,3.89,7.06,4.31,11.15.75,7.15-2.12,14.47-7.66,19.58l-9.09,8.38c-.69.63-1.72.71-2.49.18l-3.59-2.46-5.7,4.44c-.87.68-2.13.52-2.81-.35-.68-.87-.52-2.13.35-2.81l6.85-5.34c.69-.54,1.64-.56,2.36-.07l3.48,2.39,7.92-7.3c4.62-4.25,7.01-10.32,6.39-16.22-.35-3.37-1.57-6.54-3.54-9.17-2.51-3.36-6.22-5.8-10.46-6.88-6.13-1.56-12.78.14-17.79,4.54l-16.07,14.14c-2.08,1.83-4.59,3.07-7.26,3.59-1.59.31-3.2.5-4.79.55-4.34.16-8.94-1.1-17.31-3.37l-3.28-.89c-5.16-1.4-10.47-1.78-15.79-1.1-9.69,1.23-19.09,3.86-27.95,7.81-8.38,3.73-16.13,8.58-21.81,13.65-2.47,2.21-3.53,5.59-2.76,8.82.92,3.84,2.74,8.14,5.92,13.96,7.17,13.13,18.84,26.57,24.93,32.39.33.32.54.74.6,1.19.34,2.61.36,5.26.07,7.88-.25,2.23-.73,4.44-1.42,6.58l7.52,8.33h10.81c2.12,0,3.95-1.5,4.36-3.58l.99-4.96c.08-.43-.1-.74-.22-.88-.12-.15-.38-.39-.81-.41l-10.32-.28c-.49-.01-.96-.21-1.32-.55l-5.21-4.93c-.54-.51-.75-1.27-.55-1.98l5.68-20.55c-.07-5.96-.42-11.97-1.05-17.88-.46-4.33-1.07-8.7-1.82-12.98-.65-3.68-.5-7.39.43-11.04l1.81-7.1c.27-1.07,1.36-1.72,2.43-1.44,1.07.27,1.72,1.36,1.44,2.43l-1.81,7.1c-.79,3.09-.91,6.24-.37,9.35.77,4.37,1.39,8.83,1.86,13.25.65,6.13,1.01,12.37,1.07,18.54,0,.19-.02.37-.07.55l-5.43,19.66,3.78,3.58,9.56.26c1.5.04,2.9.74,3.83,1.91.94,1.17,1.31,2.69,1.01,4.16l-.99,4.96c-.79,3.94-4.27,6.8-8.29,6.8Z"/>
  <path d="M45.14,101.18c-.6,0-1.2-.27-1.59-.79-3.96-5.2-13.66-18.84-18.21-33.02-1.38-4.29-1.62-6.19-1.95-8.81-.1-.82-.22-1.72-.38-2.81-.15-1,.46-1.95,1.43-2.22l19.9-5.65c1.06-.3,2.17.31,2.47,1.38.3,1.06-.31,2.17-1.38,2.47l-18.22,5.17c.05.41.1.79.15,1.15.32,2.5.53,4.15,1.79,8.09,4.36,13.59,13.75,26.78,17.59,31.82.67.88.5,2.13-.38,2.8-.36.28-.79.41-1.21.41Z"/>
  <path d="M57.48,103.86c-1.1,0-2-.9-2-2v-11.92c0-1.1.9-2,2-2s2,.9,2,2v11.92c0,1.1-.9,2-2,2Z"/>
  <path d="M67.34,109.07c-.5,0-1-.19-1.39-.56-.79-.77-.81-2.03-.05-2.83l8.22-8.49c.77-.79,2.04-.82,2.83-.05.79.77.81,2.03.05,2.83l-8.22,8.49c-.39.41-.92.61-1.44.61Z"/>
  <path d="M82.54,118.52h-12.05c-1.1,0-2-.9-2-2s.9-2,2-2h12.05c1.1,0,2,.9,2,2s-.9,2-2,2Z"/>
  <path d="M28.85,128.11H12.55c-1.1,0-2-.9-2-2s.9-2,2-2h16.3c1.1,0,2,.9,2,2s-.9,2-2,2Z"/>
  <path d="M21.31,149.61c-.52,0-1.04-.2-1.43-.6-.77-.79-.76-2.06.03-2.83l11.51-11.23c.79-.77,2.06-.76,2.83.03.77.79.76,2.06-.03,2.83l-11.51,11.23c-.39.38-.89.57-1.4.57Z"/>
  <path d="M42.82,158.52c-1.1,0-2-.9-2-2v-15.75c0-1.1.9-2,2-2s2,.9,2,2v15.75c0,1.1-.9,2-2,2Z"/>
  <path d="M64.19,149.61c-.38,0-.77-.11-1.11-.34-.2-.13-.58-.38-11.67-11.48-.78-.78-.78-2.05,0-2.83s2.05-.78,2.83,0c3.96,3.96,10.45,10.42,11.19,11.07.82.64,1.01,1.81.43,2.69-.38.58-1.02.89-1.67.89Z"/>
</svg>