<?xml version="1.0" encoding="UTF-8"?>
<svg id="Layer_1" data-name="Layer 1" xmlns="http://www.w3.org/2000/svg" viewBox="0 0 160 160">
  <defs>
    <style>
      .cls-1 {
        stroke: #000;
        stroke-miterlimit: 10;
        stroke-width: 2px;
      }
    </style>
  </defs>
  <g>
    <path class="cls-1" d="M53.02,144.24c-.46,0-.91-.17-1.27-.51-.72-.7-.74-1.85-.04-2.57l14.29-14.71c.7-.72,1.85-.74,2.57-.04.72.7.74,1.85.04,2.57l-14.29,14.71c-.36.37-.83.55-1.31.55Z"/>
    <path class="cls-1" d="M53.02,144.61c-.57,0-1.11-.22-1.52-.62-.87-.84-.89-2.23-.05-3.09l14.29-14.72c.41-.42.95-.65,1.54-.66.57-.02,1.14.21,1.55.62.42.41.65.95.66,1.54,0,.58-.21,1.14-.62,1.55l-14.29,14.71c-.41.42-.98.66-1.57.66ZM67.31,126.25s-.01,0-.02,0c-.39,0-.75.16-1.02.44l-14.29,14.71c-.56.57-.54,1.5.03,2.06.55.54,1.52.52,2.06-.03l14.29-14.72c.27-.28.42-.65.41-1.03s-.16-.75-.44-1.02c-.27-.27-.63-.41-1.01-.41Z"/>
  </g>
  <g>
    <path class="cls-1" d="M80.71,155.48c-1,0-1.82-.82-1.82-1.82v-22.49c0-1,.82-1.82,1.82-1.82s1.82.82,1.82,1.82v22.49c0,1-.82,1.82-1.82,1.82Z"/>
    <path class="cls-1" d="M80.71,155.84c-1.21,0-2.19-.98-2.19-2.18v-22.49c0-1.21.98-2.19,2.19-2.19s2.19.98,2.19,2.19v22.49c0,1.2-.98,2.18-2.19,2.18ZM80.71,129.71c-.8,0-1.45.65-1.45,1.45v22.49c0,.8.65,1.45,1.45,1.45s1.45-.65,1.45-1.45v-22.49c0-.8-.65-1.45-1.45-1.45Z"/>
  </g>
  <g>
    <path class="cls-1" d="M109.66,144.23c-.45,0-.9-.16-1.25-.5l-15.56-14.71c-.73-.69-.76-1.84-.07-2.57.69-.73,1.84-.76,2.57-.07l15.56,14.71c.73.69.76,1.84.07,2.57-.36.38-.84.57-1.32.57Z"/>
    <path class="cls-1" d="M109.66,144.6c-.56,0-1.1-.21-1.5-.6l-15.56-14.71c-.87-.83-.91-2.21-.09-3.09.83-.87,2.22-.91,3.09-.09l15.55,14.71c.87.83.91,2.21.09,3.09-.41.43-.99.68-1.59.68ZM94.1,126.25c-.39,0-.77.15-1.06.45-.55.58-.53,1.51.06,2.06l15.56,14.71c.56.53,1.52.5,2.06-.06.55-.58.52-1.5-.06-2.06l-15.55-14.71c-.28-.26-.64-.4-1-.4Z"/>
  </g>
  <path class="cls-1" d="M81.65,120.24c-3.31,0-6.59-1.42-8.91-4.17l-6.12-7.25L30.3,61.52c-1.22-1.64-2.71-3.01-4.42-4.09l-.13-.09-7.37-5.58c-1.65-1.05-3.06-2.4-4.17-4.01l-9.91-14.29c-1.28-1.85-1.33-4.27-.14-6.17.85-1.34,2.23-2.28,3.79-2.57.42-.08.84-.1,1.25-.09-.93-1.91-.71-4.22.64-5.94,1.02-1.3,2.56-2.09,4.21-2.15.42-.02.83.01,1.24.09-.48-1.93.09-4,1.59-5.43,1-.96,2.31-1.45,3.7-1.42.6.02,1.18.14,1.73.35-.19-2.03.78-4.06,2.65-5.16,2.56-1.5,5.84-.85,7.63,1.51l4.92,6.48c.13.17.35.26.56.22,2.51-.47,5.06.57,6.51,2.67l8.14,11.82c1.13,1.64,1.48,3.68.95,5.6l-3.06,11.28c-.49,1.82-.25,3.72.67,5.37.5.88,1.15,1.65,1.95,2.28l32.64,26.03c8.14-17.1,19.28-32.19,33.11-44.86,10.46-9.58,22.27-17.57,35.12-23.76.9-.43,1.99-.06,2.43.85.44.91.06,1.99-.85,2.43-12.53,6.03-24.05,13.83-34.24,23.17-13.55,12.42-24.46,27.22-32.4,44-.45.94-1.29,1.62-2.31,1.86-1.02.24-2.08,0-2.9-.66l-32.86-26.21c-1.16-.92-2.11-2.05-2.84-3.34-1.4-2.48-1.76-5.36-1.02-8.11l3.06-11.28c.24-.88.08-1.83-.44-2.58l-8.14-11.82c-.63-.91-1.73-1.37-2.83-1.16-1.58.3-3.17-.31-4.14-1.59l-4.92-6.48c-.68-.89-1.92-1.14-2.89-.57-.83.49-1.11,1.53-.65,2.37l3.53,6.42c.48.88.23,1.99-.58,2.58-.82.59-1.95.48-2.63-.26l-4.95-5.33c-.27-.29-.64-.46-1.04-.47-.41-.01-.78.13-1.07.41-.68.65-.82,1.67-.34,2.48l3.71,6.27c.52.88.29,2.01-.53,2.62-.82.61-1.96.5-2.65-.25l-3.82-4.12c-.41-.44-.97-.67-1.55-.64-.6.02-1.13.3-1.5.77-.57.73-.57,1.75,0,2.48l4.25,5.41c.62.78.56,1.91-.14,2.63s-1.83.8-2.63.2l-3.97-2.97c-.46-.35-1.04-.48-1.61-.38-.57.11-1.06.44-1.37.93-.42.67-.4,1.51.05,2.16l9.91,14.29c.85,1.23,1.93,2.25,3.19,3.05l.13.09,7.37,5.58c2.06,1.31,3.85,2.97,5.32,4.93l36.29,47.27,6.02,7.13c2.84,3.37,7.76,3.84,11.19,1.08l12.48-10.04c.68-.54,1.4-1.05,2.2-1.56,8.46-5.26,16.22-11.58,23.07-18.78,11.66-12.27,18.72-25.82,21.22-31.08.43-.91,1.52-1.3,2.42-.86.91.43,1.29,1.52.86,2.42-2.57,5.42-9.85,19.39-21.87,32.03-7.06,7.42-15.06,13.94-23.78,19.36-.68.42-1.28.85-1.84,1.3l-12.48,10.04c-2.18,1.75-4.77,2.61-7.34,2.61Z"/>
</svg>