<?xml version="1.0" encoding="UTF-8"?>
<svg id="Layer_1" data-name="Layer 1" xmlns="http://www.w3.org/2000/svg" viewBox="0 0 160 160">
  <g>
    <path d="M49.86,144.19c-.47,0-.94-.18-1.3-.53-.74-.72-.76-1.9-.04-2.64l14.66-15.1c.72-.74,1.9-.76,2.64-.04.74.72.76,1.9.04,2.64l-14.66,15.1c-.37.38-.85.57-1.34.57Z"/>
    <path d="M49.86,144.57c-.59,0-1.14-.22-1.56-.63-.89-.86-.91-2.28-.05-3.17l14.67-15.1c.42-.43.98-.67,1.58-.68.59-.02,1.17.22,1.59.63.43.42.67.98.68,1.58,0,.6-.22,1.17-.63,1.59l-14.66,15.1c-.42.43-1,.68-1.61.68ZM64.52,125.74s-.01,0-.02,0c-.4,0-.77.17-1.05.45l-14.66,15.1c-.57.59-.56,1.54.03,2.11.57.55,1.55.54,2.11-.03l14.67-15.1c.28-.29.43-.66.42-1.06s-.17-.77-.45-1.05c-.28-.27-.65-.42-1.04-.42Z"/>
  </g>
  <g>
    <path d="M81.99,158.64c-1.03,0-1.87-.84-1.87-1.87v-23.07c0-1.03.84-1.87,1.87-1.87s1.87.84,1.87,1.87v23.07c0,1.03-.84,1.87-1.87,1.87Z"/>
    <path d="M81.99,159.01c-1.24,0-2.24-1.01-2.24-2.24v-23.08c0-1.24,1.01-2.24,2.24-2.24s2.24,1.01,2.24,2.24v23.08c0,1.24-1.01,2.24-2.24,2.24ZM81.99,132.21c-.82,0-1.49.67-1.49,1.49v23.08c0,.82.67,1.49,1.49,1.49s1.49-.67,1.49-1.49v-23.08c0-.82-.67-1.49-1.49-1.49Z"/>
  </g>
  <g>
    <path d="M114.98,144.19c-.46,0-.92-.17-1.28-.51l-15.96-15.1c-.75-.71-.78-1.89-.07-2.64.71-.75,1.89-.78,2.64-.07l15.96,15.1c.75.71.78,1.89.07,2.64-.37.39-.86.58-1.36.58Z"/>
    <path d="M114.98,144.57c-.58,0-1.12-.22-1.54-.61l-15.96-15.1c-.9-.85-.94-2.27-.09-3.17.85-.9,2.27-.93,3.17-.09l15.96,15.1c.9.85.94,2.27.09,3.17-.42.45-1.02.7-1.63.7ZM99.03,125.74c-.4,0-.79.16-1.09.47-.57.6-.54,1.54.06,2.11l15.96,15.1c.57.54,1.56.52,2.11-.06.56-.6.54-1.54-.06-2.11l-15.96-15.1c-.29-.27-.66-.41-1.02-.41Z"/>
  </g>
  <g>
    <g>
      <path d="M81.69,120.45c-3.4,0-6.76-1.46-9.14-4.28l-6.28-7.43L29.01,60.2c-1.26-1.68-2.78-3.09-4.54-4.19l-.13-.09-7.56-5.73c-1.69-1.08-3.13-2.46-4.28-4.12L2.34,31.41c-1.31-1.89-1.37-4.38-.14-6.33.87-1.38,2.28-2.34,3.89-2.64.43-.08.86-.1,1.28-.09-.95-1.96-.73-4.33.66-6.1,1.05-1.33,2.62-2.14,4.32-2.21.43-.02.85.01,1.27.09-.49-1.98.09-4.1,1.63-5.57,1.03-.98,2.37-1.48,3.79-1.45.62.02,1.22.14,1.77.36-.2-2.08.8-4.16,2.72-5.29,2.63-1.54,5.99-.87,7.83,1.55l5.05,6.64c.14.18.36.27.58.22,2.58-.48,5.19.59,6.67,2.74l8.35,12.13c1.16,1.68,1.51,3.77.98,5.74l-3.14,11.57c-.51,1.87-.26,3.82.69,5.51.51.91,1.18,1.69,2,2.34l33.48,26.71c8.35-17.54,19.78-33.02,33.96-46.02,10.73-9.83,22.85-18.03,36.03-24.38.92-.44,2.04-.06,2.49.87.45.93.06,2.04-.87,2.49-12.85,6.19-24.67,14.19-35.13,23.77-13.91,12.74-25.09,27.93-33.24,45.14-.46.97-1.32,1.66-2.37,1.9-1.05.24-2.14,0-2.98-.68l-33.71-26.89c-1.19-.95-2.17-2.1-2.92-3.42-1.44-2.55-1.81-5.5-1.04-8.32l3.14-11.57c.25-.91.08-1.87-.45-2.65l-8.35-12.13c-.64-.94-1.77-1.41-2.9-1.19-1.62.31-3.25-.31-4.25-1.63l-5.05-6.64c-.7-.92-1.97-1.17-2.97-.59-.85.5-1.14,1.57-.67,2.43l3.62,6.59c.5.9.24,2.04-.6,2.64-.84.61-2,.49-2.7-.26l-5.08-5.47c-.28-.3-.66-.47-1.07-.49-.42-.01-.8.14-1.1.42-.7.67-.84,1.71-.35,2.54l3.81,6.43c.53.91.3,2.06-.54,2.69-.84.62-2.02.51-2.72-.26l-3.92-4.23c-.42-.45-1-.69-1.59-.66-.61.03-1.16.3-1.53.79-.59.75-.59,1.79,0,2.54l4.36,5.55c.63.8.57,1.96-.14,2.69s-1.88.82-2.7.21l-4.07-3.05c-.48-.36-1.06-.49-1.65-.39-.59.11-1.09.45-1.4.95-.43.68-.41,1.55.05,2.21l10.16,14.66c.88,1.26,1.98,2.31,3.27,3.13l.13.09,7.56,5.73c2.12,1.35,3.95,3.05,5.45,5.06l37.24,48.5,6.18,7.31c2.91,3.45,7.96,3.94,11.48,1.1l12.8-10.3c.7-.56,1.43-1.08,2.26-1.6,8.68-5.4,16.64-11.88,23.66-19.27,11.96-12.58,19.21-26.49,21.77-31.89.44-.93,1.56-1.33,2.49-.89.93.44,1.33,1.56.89,2.49-2.64,5.56-10.1,19.89-22.44,32.86-7.24,7.61-15.45,14.3-24.4,19.86-.69.43-1.31.87-1.89,1.33l-12.8,10.3c-2.24,1.8-4.89,2.68-7.53,2.68Z"/>
      <path d="M81.69,120.82c-3.63,0-7.06-1.61-9.43-4.41l-6.28-7.43L28.71,60.43c-1.23-1.64-2.72-3.02-4.44-4.1l-.15-.1-7.57-5.74c-1.71-1.09-3.19-2.51-4.36-4.2L2.03,31.63c-1.4-2.02-1.46-4.66-.15-6.74.92-1.47,2.43-2.49,4.13-2.8.25-.05.51-.08.78-.09-.75-2.01-.42-4.25.93-5.96,1.11-1.42,2.79-2.28,4.6-2.35.26-.01.53,0,.81.02-.31-1.97.38-4,1.84-5.4,1.09-1.04,2.54-1.58,4.06-1.56.47.01.92.08,1.36.21,0-2.09,1.09-4,2.93-5.08,2.79-1.63,6.36-.92,8.32,1.65l5.05,6.64c.05.06.13.1.21.08,2.72-.51,5.49.63,7.06,2.9l8.35,12.13c1.22,1.77,1.6,3.98,1.03,6.06l-3.14,11.57c-.48,1.77-.25,3.62.65,5.22.49.86,1.13,1.62,1.9,2.23l33.11,26.41c8.35-17.41,19.74-32.78,33.85-45.71,10.75-9.85,22.91-18.07,36.12-24.44.54-.26,1.15-.29,1.71-.1.57.2,1.02.6,1.28,1.14.26.54.29,1.15.1,1.71-.2.57-.6,1.02-1.14,1.28-12.82,6.18-24.61,14.15-35.04,23.71-13.87,12.71-25.03,27.86-33.16,45.02-.51,1.07-1.46,1.84-2.62,2.11-1.16.27-2.37,0-3.3-.75l-33.71-26.89c-1.23-.98-2.24-2.17-3.01-3.53-1.49-2.63-1.87-5.69-1.08-8.61l3.14-11.57c.22-.8.07-1.65-.4-2.34l-8.35-12.13c-.56-.81-1.55-1.22-2.52-1.04-1.76.33-3.53-.34-4.62-1.77l-5.05-6.64c-.58-.76-1.65-.98-2.48-.49-.67.39-.9,1.24-.53,1.92l3.62,6.59c.59,1.07.28,2.42-.71,3.13-.99.71-2.36.58-3.19-.31l-5.08-5.47c-.21-.23-.5-.36-.81-.37-.3,0-.6.1-.83.32-.57.54-.69,1.4-.29,2.08l3.81,6.43c.63,1.07.35,2.44-.64,3.18-1,.74-2.38.61-3.22-.3l-3.92-4.23c-.34-.36-.83-.57-1.3-.54-.5.02-.95.25-1.26.64-.48.61-.48,1.47,0,2.08l4.36,5.55c.75.95.68,2.32-.17,3.19-.85.87-2.22.97-3.19.24l-4.07-3.05c-.39-.29-.88-.41-1.36-.32-.48.09-.89.37-1.15.78-.35.55-.33,1.26.04,1.8l10.16,14.66c.85,1.22,1.91,2.24,3.16,3.03l.15.1,7.57,5.74c2.13,1.35,4,3.08,5.53,5.13l37.23,48.49,6.16,7.3c2.78,3.3,7.59,3.76,10.96,1.06l12.8-10.3c.71-.57,1.46-1.1,2.3-1.62,8.65-5.38,16.59-11.84,23.59-19.21,11.92-12.54,19.15-26.41,21.7-31.79.26-.54.71-.95,1.28-1.15.57-.2,1.17-.17,1.71.09,1.12.53,1.59,1.87,1.07,2.99-2.65,5.58-10.14,19.95-22.5,32.96-7.26,7.64-15.49,14.34-24.47,19.92-.69.43-1.29.85-1.85,1.31l-12.8,10.3c-2.24,1.8-4.93,2.76-7.76,2.76ZM7.16,22.73c-.35,0-.69.03-1.01.09-1.5.28-2.82,1.18-3.64,2.47-1.15,1.82-1.1,4.15.13,5.92l10.16,14.66c1.12,1.61,2.52,2.96,4.17,4.01l7.7,5.83c1.79,1.12,3.35,2.57,4.63,4.28l37.26,48.52,6.26,7.42c2.23,2.64,5.46,4.15,8.86,4.15,2.66,0,5.18-.9,7.29-2.59l12.8-10.3c.58-.47,1.21-.92,1.93-1.36,8.92-5.55,17.11-12.21,24.32-19.81,12.29-12.93,19.74-27.22,22.37-32.76.35-.74.03-1.63-.71-1.99-.36-.17-.76-.19-1.13-.06-.38.13-.68.41-.85.77-2.57,5.41-9.84,19.36-21.84,31.99-7.04,7.41-15.03,13.91-23.74,19.33-.81.5-1.54,1.02-2.22,1.57l-12.8,10.3c-3.68,2.96-8.95,2.46-12-1.16l-6.18-7.31L31.69,58.18c-1.47-1.98-3.28-3.65-5.36-4.97l-7.7-5.83c-1.32-.83-2.46-1.92-3.37-3.22l-10.16-14.66c-.54-.79-.57-1.82-.06-2.63.38-.59.96-.99,1.65-1.12.7-.12,1.39.04,1.95.46l4.07,3.05c.67.5,1.62.43,2.2-.17.58-.6.64-1.55.12-2.2l-4.37-5.56c-.69-.88-.69-2.12,0-3,.45-.57,1.09-.9,1.81-.93.72-.02,1.4.25,1.88.78l3.92,4.23c.58.63,1.54.72,2.22.21.69-.51.88-1.45.44-2.2l-3.8-6.43c-.58-.98-.41-2.22.41-3,.38-.36.82-.52,1.37-.53.51.02.99.23,1.33.61l5.08,5.47c.57.61,1.52.71,2.2.22.68-.49.89-1.42.49-2.16l-3.62-6.59c-.57-1.04-.22-2.33.81-2.93,1.16-.67,2.65-.38,3.46.68l5.05,6.64c.91,1.2,2.4,1.77,3.88,1.49,1.26-.24,2.55.29,3.28,1.35l8.35,12.13c.6.87.78,1.94.5,2.96l-3.14,11.57c-.74,2.73-.38,5.58,1.01,8.04.72,1.28,1.67,2.4,2.83,3.32l33.71,26.89c.75.6,1.72.82,2.66.6.93-.22,1.7-.83,2.11-1.7,8.17-17.26,19.39-32.48,33.33-45.26,10.48-9.6,22.33-17.62,35.22-23.83.36-.17.63-.48.76-.85.13-.38.11-.78-.06-1.14-.17-.36-.48-.63-.85-.76-.38-.13-.78-.11-1.14.06-13.15,6.33-25.25,14.52-35.95,24.32-14.15,12.97-25.55,28.41-33.88,45.91l-.2.43-33.85-27c-.85-.68-1.56-1.5-2.09-2.45-1-1.77-1.26-3.83-.73-5.79l3.14-11.57c.51-1.86.17-3.84-.92-5.43l-8.35-12.13c-1.4-2.03-3.86-3.04-6.3-2.59-.35.07-.72-.07-.95-.36l-5.05-6.64c-1.72-2.27-4.88-2.89-7.34-1.45-1.76,1.03-2.73,2.92-2.54,4.93l.06.61-.57-.22c-.52-.21-1.08-.32-1.65-.34-1.33-.04-2.58.45-3.52,1.35-1.41,1.34-1.99,3.34-1.52,5.21l.14.56-.57-.1c-.41-.07-.81-.1-1.18-.08-1.59.07-3.06.82-4.04,2.07-1.29,1.64-1.53,3.83-.62,5.7l.27.56-.62-.02c-.06,0-.13,0-.19,0Z"/>
    </g>
    <g>
      <path d="M12.38,28.96s0,0,.01.01h-.01Z"/>
      <polygon points="12.11 29.22 12.21 29.12 12.1 29.21 12.66 28.71 12.54 28.83 12.67 28.72 12.68 28.73 12.47 28.91 12.71 28.77 12.39 28.97 12.11 29.22"/>
    </g>
    <g>
      <path d="M14.72,26.57h0s0,0,0,0Z"/>
      <polygon points="14.46 26.84 14.38 26.78 14.39 26.74 13.59 25.13 14.97 26.29 14.74 26.56 15.06 26.4 14.68 26.62 14.93 26.26 14.46 26.84"/>
    </g>
    <g>
      <path d="M20.75,20.13h0s0,0,0,0Z"/>
      <polygon points="22.65 21.5 20.46 20.37 20.77 20.08 20.92 19.8 20.78 20.07 21.01 19.86 22.65 21.5"/>
    </g>
  </g>
</svg>