<?xml version="1.0" encoding="UTF-8"?>
<svg id="Layer_2" data-name="Layer 2" xmlns="http://www.w3.org/2000/svg" viewBox="0 0 160 160">
  <g>
    <path d="M110.69,153.13c-3.96,0-7.62-.38-12.29-1.59-7.29-1.9-10.15-4.1-13.46-6.65-2.86-2.2-6.1-4.69-13.25-7.78-5.15-2.23-9.12-3.48-12.62-4.59-5.95-1.88-10.24-3.24-15.43-7.83-6.24-5.53-13.27-13.99-11.39-22.89,1.05-4.97,3.71-7.57,6.78-10.59,1.84-1.8,3.92-3.85,6.14-6.81,6.07-8.09,10.82-15.26,16.71-33.97,4.27-13.54,7.44-27.66,9.44-41.97.14-1.01,1.07-1.71,2.08-1.57,1.01.14,1.71,1.07,1.57,2.08-2.02,14.51-5.25,28.84-9.57,42.57-6.06,19.22-11.19,26.96-17.28,35.07-2.39,3.18-4.57,5.33-6.5,7.23-2.97,2.92-4.93,4.84-5.76,8.73-.84,3.96.25,10.53,10.23,19.38,4.6,4.08,8.38,5.27,14.1,7.08,3.41,1.08,7.65,2.42,12.98,4.72,7.57,3.27,11.16,6.03,14.03,8.24,3.24,2.49,5.57,4.29,12.15,6,7.22,1.88,11.71,1.61,19.88,1.11,3.07-.19,6.54-.4,10.83-.53h.07c1.16,0,4.47.03,18.34-2.13,3.23-.5,4.61-2.97,5.14-4.4.04-.1.06-.19.07-.2.18-.62.13-1.37-.15-2.28-1.39-4.49-2.98-4.82-9.67-6.19-3.99-.82-9.46-1.94-17.05-4.56-1.8-.62-3.37-1.13-4.76-1.59-11.28-3.68-11.53-4.32-18.08-20.61-2.38-5.92-5.64-14.04-10.62-25.3-3.39-7.67-1.93-10.6,16.01-46.4l3.87-7.73c.45-.91,1.56-1.28,2.47-.82.91.45,1.28,1.56.82,2.47l-3.87,7.73c-17.22,34.37-18.63,37.18-15.94,43.27,5.01,11.32,8.28,19.47,10.67,25.42,3.16,7.86,4.75,11.81,6.66,14.02,1.78,2.06,4.09,2.81,9.14,4.46,1.4.46,2.99.98,4.82,1.61,7.36,2.54,12.7,3.64,16.59,4.43,6.93,1.42,10.41,2.14,12.44,8.71.5,1.62.55,3.05.16,4.4,0,0-.07.23-.15.46-1.38,3.71-4.31,6.17-8.02,6.74-14.18,2.21-17.59,2.18-18.88,2.17-4.22.13-7.67.34-10.71.53-3.31.2-6.09.37-8.74.37Z"/>
    <path d="M110.69,153.63c-4.37,0-8.08-.48-12.41-1.61-7.39-1.93-10.29-4.15-13.64-6.73-2.84-2.19-6.05-4.66-13.15-7.72-5.12-2.21-9.07-3.46-12.55-4.56-6.03-1.91-10.37-3.28-15.63-7.94-6.33-5.62-13.48-14.24-11.54-23.37,1.08-5.12,3.79-7.77,6.91-10.84,1.82-1.79,3.89-3.82,6.09-6.75,6.04-8.05,10.76-15.19,16.63-33.82,4.26-13.51,7.43-27.61,9.42-41.89.18-1.28,1.36-2.17,2.64-1.99.62.09,1.17.41,1.54.91s.54,1.11.45,1.73c-2.03,14.54-5.26,28.89-9.59,42.65-6.08,19.3-11.24,27.07-17.35,35.22-2.41,3.21-4.61,5.37-6.55,7.28-2.91,2.86-4.83,4.74-5.62,8.48-.81,3.83.28,10.21,10.07,18.9,4.52,4.01,8.25,5.19,13.91,6.97,3.42,1.08,7.68,2.43,13.02,4.74,7.63,3.3,11.24,6.08,14.14,8.31,3.19,2.45,5.49,4.23,11.97,5.92,7.13,1.86,11.59,1.59,19.7,1.1,3.08-.19,6.55-.4,10.87-.54h.1c1.1,0,4.47.02,18.25-2.12,2.98-.46,4.25-2.75,4.75-4.08.03-.08.05-.16.06-.17.15-.53.11-1.18-.14-1.99-1.3-4.21-2.68-4.49-9.29-5.85-4-.82-9.49-1.95-17.12-4.58-1.75-.6-3.29-1.11-4.66-1.55-11.59-3.78-11.98-4.75-18.48-20.92-2.38-5.93-5.64-14.04-10.62-25.29-3.49-7.89-2.02-10.83,16.02-46.83l3.87-7.73c.58-1.15,1.98-1.62,3.14-1.04.56.28.98.76,1.17,1.35s.15,1.23-.13,1.79l-3.87,7.73c-17.13,34.18-18.53,36.97-15.93,42.84,5,11.3,8.27,19.44,10.66,25.39,3.16,7.86,4.74,11.78,6.6,13.93,1.69,1.95,3.96,2.69,8.92,4.31,1.41.46,3,.98,4.83,1.61,7.33,2.53,12.64,3.62,16.52,4.42,6.91,1.42,10.71,2.2,12.83,9.05.53,1.71.58,3.24.17,4.68,0,0,0,0,0,0,0,0-.07.25-.17.5-1.45,3.88-4.51,6.46-8.41,7.06-14.2,2.21-17.65,2.19-18.95,2.18-4.21.13-7.64.34-10.68.53-3.27.2-6.1.37-8.77.37ZM73.14,7.37c-.66,0-1.23.48-1.33,1.15-2,14.34-5.18,28.49-9.46,42.05-5.92,18.78-10.69,25.99-16.79,34.12-2.24,2.99-4.34,5.05-6.19,6.86-3.01,2.96-5.61,5.51-6.64,10.34-1.84,8.67,5.09,16.97,11.23,22.42,5.1,4.53,9.35,5.87,15.24,7.73,3.54,1.12,7.52,2.38,12.68,4.61,7.21,3.12,10.47,5.63,13.35,7.84,3.27,2.52,6.09,4.69,13.29,6.56,4.25,1.11,7.88,1.58,12.16,1.58,2.64,0,5.45-.17,8.71-.37,3.04-.18,6.49-.39,10.72-.53,1.3.01,4.69.03,18.82-2.17,3.53-.55,6.31-2.89,7.63-6.42.07-.19.13-.39.14-.42.36-1.25.31-2.59-.16-4.12-1.94-6.29-5.12-6.94-12.07-8.37-3.92-.8-9.27-1.9-16.66-4.45-1.82-.63-3.41-1.15-4.81-1.6-5.15-1.68-7.5-2.45-9.37-4.61-1.97-2.27-3.57-6.25-6.75-14.16-2.41-5.99-5.68-14.12-10.67-25.4-2.79-6.3-1.37-9.13,15.95-43.69l3.87-7.74c.16-.32.19-.68.07-1.02-.11-.34-.35-.61-.67-.77-.66-.33-1.47-.06-1.8.6l-3.87,7.73c-17.84,35.61-19.3,38.52-16,45.98,4.98,11.26,8.24,19.38,10.63,25.31,6.59,16.41,6.72,16.72,17.77,20.33,1.46.48,3.01.98,4.77,1.59,7.57,2.61,13.01,3.73,16.99,4.54,6.76,1.39,8.57,1.76,10.05,6.54.31,1,.36,1.84.15,2.57,0,.01-.04.13-.08.24-.57,1.53-2.05,4.17-5.53,4.71-13.86,2.16-17.16,2.14-18.41,2.13-4.36.14-7.83.35-10.88.53-8.22.5-12.74.77-20.03-1.13-6.67-1.74-9.04-3.56-12.33-6.09-2.86-2.2-6.41-4.93-13.93-8.18-5.3-2.29-9.53-3.63-12.93-4.7-5.78-1.83-9.6-3.03-14.28-7.18-10.15-9.01-11.25-15.77-10.39-19.86.85-4.03,2.86-6,5.89-8.98,1.92-1.88,4.09-4.02,6.45-7.17,6.05-8.07,11.17-15.77,17.2-34.92,4.32-13.71,7.53-28,9.56-42.49.05-.35-.04-.71-.26-.99-.22-.29-.53-.47-.88-.52-.06,0-.12-.01-.19-.01Z"/>
  </g>
  <g>
    <path d="M54.53,116.07c-.24,0-.47-.05-.71-.14-4.95-2.06-8.14-6.85-8.14-12.21s3.2-10.15,8.14-12.21c.94-.39,2.01.05,2.4.99.39.94-.05,2.01-.99,2.4-3.57,1.49-5.88,4.95-5.88,8.82s2.31,7.33,5.88,8.82c.94.39,1.38,1.47.99,2.4-.29.71-.98,1.13-1.7,1.13Z"/>
    <path d="M54.53,116.57c-.31,0-.61-.06-.9-.18-5.13-2.14-8.45-7.11-8.45-12.67s3.32-10.54,8.45-12.67c1.19-.49,2.56.07,3.06,1.26.5,1.19-.07,2.56-1.26,3.06-3.38,1.41-5.57,4.69-5.57,8.36s2.19,6.95,5.57,8.35c1.19.5,1.75,1.87,1.26,3.06-.36.88-1.21,1.44-2.16,1.44ZM54.52,91.86c-.17,0-.35.03-.51.1-4.76,1.98-7.83,6.59-7.83,11.75s3.08,9.77,7.83,11.75c.67.28,1.47-.06,1.75-.72.28-.68-.04-1.47-.72-1.75-3.76-1.57-6.19-5.21-6.19-9.28s2.43-7.71,6.19-9.28c.68-.28,1-1.07.72-1.75-.21-.51-.71-.82-1.24-.82Z"/>
  </g>
  <g>
    <path d="M27.98,87.82c-.63,0-1.24-.32-1.58-.9l-9.77-16.36c-.52-.87-.24-2,.64-2.52.87-.52,2-.24,2.52.64l9.77,16.37c.52.87.24,2-.64,2.52-.3.18-.62.26-.94.26Z"/>
    <path d="M27.98,88.33c-.82,0-1.59-.44-2.01-1.14l-9.77-16.37c-.66-1.11-.3-2.55.81-3.21,1.11-.66,2.55-.3,3.21.81l9.77,16.37c.32.54.41,1.17.26,1.77-.15.61-.53,1.12-1.07,1.44-.36.22-.78.33-1.2.33ZM18.2,68.28c-.23,0-.47.06-.68.19-.63.38-.84,1.2-.46,1.84l9.77,16.37c.36.61,1.22.83,1.84.46.63-.38.84-1.2.46-1.84l-9.77-16.36c-.25-.42-.7-.65-1.15-.65Z"/>
  </g>
  <g>
    <path d="M26.49,95.04c-.16,0-.32-.02-.48-.06l-18.06-4.89c-.98-.27-1.56-1.28-1.29-2.25.27-.98,1.28-1.56,2.26-1.3l18.06,4.89c.98.27,1.56,1.28,1.29,2.25-.22.82-.96,1.36-1.77,1.36Z"/>
    <path d="M26.49,95.54c-.21,0-.41-.03-.61-.08l-18.05-4.89c-.6-.16-1.11-.55-1.42-1.09-.31-.54-.39-1.17-.23-1.78.34-1.24,1.62-1.98,2.87-1.65l18.06,4.89c.6.16,1.11.55,1.42,1.09.31.54.39,1.17.23,1.78-.28,1.02-1.2,1.73-2.26,1.73ZM8.43,86.97c-.59,0-1.13.39-1.29.99-.09.34-.05.71.13,1.02.18.31.47.53.81.63l18.06,4.89c.73.2,1.45-.25,1.64-.94.09-.34.05-.71-.13-1.02-.18-.31-.47-.53-.81-.63l-18.06-4.89c-.12-.03-.23-.05-.35-.05Z"/>
  </g>
  <g>
    <path d="M4.4,108.21c-.82,0-1.57-.56-1.78-1.39-.25-.99.35-1.98,1.34-2.23l18.69-4.67c.98-.25,1.98.35,2.23,1.34s-.35,1.98-1.34,2.23l-18.69,4.67c-.15.04-.3.06-.45.06Z"/>
    <path d="M4.4,108.71c-1.07,0-2.01-.73-2.27-1.77-.15-.61-.06-1.23.26-1.77.32-.54.83-.91,1.44-1.07l18.69-4.67c.6-.15,1.23-.06,1.77.26.54.32.92.83,1.07,1.44.15.61.06,1.23-.26,1.77-.32.54-.83.91-1.44,1.07l-18.69,4.67c-.18.05-.38.07-.57.07ZM23.09,100.36c-.11,0-.22.01-.33.04l-18.69,4.67c-.35.09-.64.3-.82.61s-.24.67-.15,1.01c.18.71.94,1.15,1.62.97l18.69-4.67c.35-.09.64-.3.82-.61s.24-.67.15-1.01c-.09-.35-.3-.64-.61-.82-.21-.13-.45-.19-.68-.19Z"/>
  </g>
</svg>