<?xml version="1.0" encoding="UTF-8"?>
<svg id="Layer_2" data-name="Layer 2" xmlns="http://www.w3.org/2000/svg" viewBox="0 0 160 160">
  <path d="M43.87,156.18c-.84,0-1.63-.54-1.9-1.38-3.57-10.98-4.84-21.98-3.8-32.71,1.08-11.12,4.24-18.39,6.78-24.23,2.47-5.7,4.26-9.81,2.95-14.88-1.85-7.18-13.36-12.59-43.37-25.11-1.02-.42-1.5-1.6-1.08-2.62.43-1.02,1.6-1.5,2.62-1.08,31.99,13.35,43.39,18.82,45.7,27.8,1.65,6.4-.47,11.29-3.16,17.47-2.42,5.59-5.44,12.54-6.46,23.03-.99,10.17.23,20.63,3.62,31.08.34,1.05-.23,2.18-1.28,2.52-.21.07-.41.1-.62.1Z"/>
  <path d="M71.33,85.15c-2.23,0-4.49-.51-6.51-1.75-2.45-1.5-3.72-3.67-4.26-4.59-2.2-3.76-2.15-7.63-2.12-9.49,0-.24,0-.43,0-.57-1.01-4.11-6.09-7.58-13.74-12.81-6.85-4.69-16.24-11.11-26.92-20.98-.81-.75-.86-2.02-.11-2.83.75-.81,2.02-.86,2.83-.11,10.46,9.68,19.33,15.74,26.46,20.62,8.49,5.8,14.1,9.64,15.4,15.3.09.4.09.81.08,1.44-.02,1.61-.06,4.62,1.57,7.41.46.78,1.3,2.22,2.9,3.2,3.25,1.99,7.86,1.18,10.73-.66,1.66-1.06,2.48-2.3,3.35-3.62,1.07-1.61,2.27-3.43,4.89-4.7l.14-.07c.61-.29,2.05-.97,3.49-2.36.75-.72,1.24-1.41,1.43-1.66,1.71-2.36.91-6.59-.86-9.33-1.85-2.87-5.55-3.51-8.24-3.98-1.27-.22-2.28-.4-3.05-.79-2.63-1.35-17.32-9.4-48.57-35.1-.85-.7-.98-1.96-.27-2.82.7-.85,1.96-.97,2.81-.27,30.94,25.44,45.3,33.31,47.86,34.63.25.12,1.21.29,1.9.41,3.03.53,8.11,1.42,10.91,5.75,2.53,3.91,3.6,9.92.74,13.85-.24.33-.89,1.22-1.89,2.19-1.91,1.85-3.83,2.76-4.56,3.1l-.12.06c-1.63.79-2.36,1.9-3.29,3.3-1.01,1.53-2.16,3.26-4.53,4.78-2.23,1.42-5.32,2.44-8.47,2.44ZM58.47,68.84h.01-.01Z"/>
  <path d="M91.84,156.18c-.06,0-.11,0-.17,0-1.1-.09-1.92-1.06-1.82-2.16.12-1.41.24-2.83.35-4.27.95-11.63,2.02-24.82,6.55-45.08,2.11-9.42,4.6-15.68,6.43-20.24,2.02-5.05,3.23-8.1,2.72-11.78-1.41-10.05-8.43-27.76-52.93-65.28-.84-.71-.95-1.97-.24-2.82.71-.85,1.97-.95,2.82-.24,35.14,29.64,51.89,50.54,54.31,67.79.66,4.73-.86,8.54-2.96,13.82-1.87,4.69-4.2,10.52-6.24,19.63-4.46,19.98-5.53,33.02-6.47,44.53-.12,1.45-.23,2.88-.35,4.29-.09,1.04-.96,1.83-1.99,1.83Z"/>
  <path d="M129.17,130.21c-.59,0-1.18-.26-1.58-.77l-16.32-20.88c-.61-.79-.64-1.86-.06-2.68.56-.79,1.55-1.12,2.47-.85l9.4,2.65-10.92-11.22c-.77-.79-.75-2.06.04-2.83.79-.77,2.06-.75,2.83.04l15.72,16.15c.68.7.81,1.77.31,2.6-.5.84-1.5,1.24-2.43.98l-10.89-3.07,13,16.64c.68.87.53,2.13-.34,2.81-.37.29-.8.42-1.23.42Z"/>
  <path d="M119.28,84.47c-.93,0-1.77-.66-1.96-1.61-.22-1.08.49-2.14,1.57-2.35l24.18-4.84-10.92-1.49-.52-1.05c-.3-.65-.24-1.39.14-1.99l3.66-5.78-15.65,3.96c-1.06.27-2.16-.38-2.43-1.45-.27-1.07.38-2.16,1.45-2.43l21.63-5.47.88,1.13c.5.7.53,1.62.07,2.34l-4.64,7.32,18.17,2.48c1.01.14,1.77.98,1.8,2,.03,1.02-.68,1.91-1.68,2.11l-35.35,7.07c-.13.03-.26.04-.39.04ZM154.36,77.22h0,0ZM154.25,73.44s0,0,0,0h0Z"/>
  <path d="M114.83,56.29c-.26,0-.53-.05-.79-.16-1.02-.44-1.48-1.61-1.05-2.63l9.72-22.62-5.99,6.51c-.49.54-1.23.85-1.93.82-.73-.02-1.42-.35-1.89-.92l-1.54-1.86-1.73,10.05c-.19,1.09-1.22,1.82-2.31,1.63-1.09-.19-1.82-1.22-1.63-2.31l2.38-13.8c.15-.86.79-1.57,1.64-1.79.85-.23,1.76.06,2.32.74l2.89,3.5,11.71-12.72c.76-.82,1.98-.97,2.91-.37.93.6,1.29,1.78.85,2.8l-13.71,31.92c-.33.76-1.06,1.21-1.84,1.21ZM113.77,34.68s0,0,0,0h0ZM112.01,31.67h0s0,0,0,0Z"/>
  <path d="M68.35,156.18s-.1,0-.15,0c-1.1-.08-1.93-1.04-1.85-2.14l.17-2.31c2.38-32.33,3.02-41.02-.14-45.47-.49-.68-1.21-1.2-2.04-1.79-1.81-1.29-4.05-2.9-4.65-6.86-.67-4.45,1.8-9.4,5.5-11.03,2.45-1.08,4.36-.66,6.2-.25,1.42.31,2.88.64,4.99.37,2.22-.28,3.61-1.05,4.95-1.8,1.72-.96,3.51-1.95,6.3-1.61,4.37.53,7.67,4.57,8.55,8.09,1.43,5.71-1.69,9.62-3.55,11.97-.27.34-.52.65-.72.93-3.53,4.94-4.49,18.49-6.4,45.48l-.32,4.56c-.08,1.1-1.02,1.93-2.14,1.85-1.1-.08-1.93-1.04-1.85-2.14l.32-4.56c2.03-28.61,2.96-41.66,7.14-47.52.24-.33.53-.7.85-1.1,1.67-2.1,3.75-4.71,2.8-8.51-.62-2.5-2.98-4.83-5.15-5.09-1.51-.19-2.39.31-3.87,1.13-1.52.85-3.41,1.9-6.39,2.28-2.79.35-4.77-.08-6.36-.44-1.71-.38-2.52-.52-3.72,0-2.05.9-3.55,4.13-3.15,6.78.34,2.28,1.46,3.09,3.02,4.2.98.7,2.1,1.5,2.97,2.73,4.01,5.62,3.4,13.77.88,48.08l-.17,2.31c-.08,1.05-.95,1.85-1.99,1.85Z"/>
</svg>