<?xml version="1.0" encoding="UTF-8"?>
<svg id="Layer_1" data-name="Layer 1" xmlns="http://www.w3.org/2000/svg" viewBox="0 0 160 160">
  <path d="M51.79,136.74c-1.03,0-1.91-.8-1.99-1.84-3.81-49,11.26-62.57,26.49-69.39,3.43-1.54,7.41-2.14,12.03-2.83,9.19-1.39,21.78-3.29,39.42-14.1,3.23-1.98,5.32-4.75,6.99-6.97.31-.41.6-.8.88-1.16,1.18-1.51,2.96-2.37,4.88-2.37h14.21c1.1,0,2,.9,2,2s-.9,2-2,2h-14.21c-.68,0-1.31.3-1.73.83-.27.34-.54.71-.84,1.1-1.78,2.36-4.22,5.6-8.1,7.98-18.33,11.23-31.39,13.2-40.92,14.64-4.5.68-8.05,1.22-10.99,2.53-24.82,11.11-26.27,38.01-24.14,65.43.09,1.1-.74,2.06-1.84,2.15-.05,0-.1,0-.16,0Z"/>
  <path d="M149.62,100.28c-.63,0-1.25-.3-1.64-.86-3.69-5.3-8.15-9.97-13.25-13.89-6.48-4.97-13.8-8.59-21.75-10.75-1.07-.29-1.7-1.39-1.41-2.45.29-1.07,1.38-1.7,2.45-1.41,8.45,2.3,16.24,6.14,23.13,11.43,5.43,4.16,10.17,9.13,14.1,14.77.63.91.41,2.15-.5,2.78-.35.24-.75.36-1.14.36Z"/>
  <path d="M146.77,147.44h-35.81c-.42,0-.81-.03-1.19-.09-3.36-.55-8.39-2-13.27-5.76-4.87-3.75-7.55-8.24-8.95-11.35-.38-.85-.59-1.77-.63-2.73l-1.01-24.93c-.04-1.1.81-2.04,1.92-2.08,1.08-.06,2.04.81,2.08,1.92l1.01,24.93c.02.45.12.88.29,1.26,1.21,2.69,3.54,6.58,7.74,9.82,4.22,3.25,8.57,4.5,11.48,4.98.17.03.34.04.54.04h35.81c1.21,0,2.31-.59,2.95-1.57,1.01-1.55,1.87-3.19,2.58-4.88,1.97-4.75,2.72-10.05,2.17-15.36-.12-1.1.68-2.08,1.78-2.2,1.09-.11,2.08.68,2.2,1.78.62,5.96-.22,11.95-2.45,17.31-.8,1.91-1.78,3.77-2.92,5.53-1.38,2.12-3.74,3.39-6.31,3.39Z"/>
  <path d="M81.2,136.78c-.3,0-.6-.09-.87-.28-.68-.48-.83-1.42-.35-2.09,1.32-1.86,2.54-3.81,3.62-5.81,1.42-2.61,2.64-5.35,3.62-8.14.28-.78,1.13-1.19,1.91-.91.78.28,1.19,1.13.91,1.91-1.04,2.94-2.32,5.83-3.82,8.57-1.14,2.1-2.42,4.16-3.81,6.11-.29.41-.75.63-1.22.63Z"/>
  <path d="M62.31,55.48l-10.62-25.69c-.19-.45.26-.9.71-.71l7.84,3.23c.36.15.75-.11.75-.49l.29-16.7c.01-.6.84-.75,1.06-.18l9.61,25.33c.17.44-.26.87-.7.71l-7.59-2.81c-.36-.13-.74.14-.73.53l.43,16.59c.02.6-.82.78-1.05.22Z"/>
  <path d="M39.99,57.31l-21.89-16.37c-.43-.32-.26-1,.27-1.08l8.16-1.2c.42-.06.65-.53.44-.9l-8.1-14.16c-.33-.58.38-1.19.9-.77l20.87,16.58c.41.32.24.97-.27,1.07l-7.74,1.43c-.42.08-.63.56-.4.92l8.63,13.69c.36.57-.34,1.21-.87.81Z"/>
  <path d="M39.75,86.28l-27.74-2.88c-.47-.05-.65-.64-.28-.94l6.6-5.39c.29-.24.25-.69-.08-.88l-14.62-8.23c-.51-.29-.25-1.07.33-.99l26.94,3.59c.45.06.63.63.28.93l-6.11,5.37c-.28.25-.23.71.11.88l14.87,7.54c.53.27.29,1.07-.3,1.01Z"/>
</svg>