<?xml version="1.0" encoding="UTF-8"?>
<svg id="Layer_1" data-name="Layer 1" xmlns="http://www.w3.org/2000/svg" viewBox="0 0 160 160">
  <defs>
    <style>
      .cls-1 {
        stroke: #000;
        stroke-miterlimit: 10;
        stroke-width: 2px;
      }
    </style>
  </defs>
  <path class="cls-1" d="M52.46,132.57c-.98,0-1.8-.75-1.88-1.74-3.59-46.21,10.62-59.02,24.99-65.45,3.24-1.45,6.99-2.02,11.34-2.67,8.67-1.31,20.54-3.1,37.18-13.29,3.05-1.87,5.01-4.48,6.59-6.58.29-.39.57-.75.83-1.09,1.11-1.42,2.79-2.23,4.6-2.23h13.4c1.04,0,1.89.84,1.89,1.89s-.84,1.89-1.89,1.89h-13.4c-.64,0-1.24.29-1.63.79-.25.32-.51.67-.79,1.04-1.68,2.23-3.98,5.28-7.64,7.52-17.29,10.59-29.6,12.45-38.59,13.81-4.24.64-7.6,1.15-10.36,2.39-23.41,10.48-24.78,35.85-22.77,61.71.08,1.04-.7,1.95-1.73,2.03-.05,0-.1,0-.15,0Z"/>
  <path class="cls-1" d="M144.72,98.18c-.6,0-1.18-.28-1.55-.81-3.48-5-7.69-9.41-12.5-13.1-6.11-4.69-13.01-8.1-20.51-10.14-1.01-.27-1.6-1.31-1.33-2.31.27-1.01,1.31-1.6,2.31-1.33,7.97,2.17,15.31,5.8,21.82,10.78,5.12,3.93,9.59,8.61,13.3,13.93.6.86.39,2.03-.47,2.63-.33.23-.7.34-1.08.34Z"/>
  <path class="cls-1" d="M150.74,134.24c-.75,1.81-1.68,3.57-2.75,5.22-1.3,2-3.53,3.2-5.95,3.2h-33.77c-.39,0-.75-.03-1.12-.08-3.17-.53-7.91-1.89-12.51-5.43-4.59-3.54-7.13-7.77-8.44-10.7-.24-.52-.41-1.07-.5-1.64-.24.49-.49.97-.75,1.45-1.08,1.98-2.28,3.92-3.59,5.76-.27.4-.71.6-1.15.6-.28,0-.58-.08-.82-.26-.64-.45-.79-1.34-.34-1.97,1.24-1.75,2.4-3.59,3.42-5.48,1.1-2.04,2.08-4.17,2.91-6.34l-.74-18.22c-.04-1.04.77-1.91,1.81-1.96,1.02-.06,1.91.76,1.96,1.81l.95,23.51c.02.42.1.83.27,1.19,1.14,2.54,3.33,6.21,7.3,9.26,3.98,3.07,8.08,4.24,10.82,4.7.16.03.32.04.51.04h33.77c1.14,0,2.19-.56,2.78-1.48.95-1.46,1.77-3.01,2.43-4.6,1.87-4.48,2.57-9.49,2.05-14.49-.11-1.04.64-1.96,1.68-2.07,1.03-.1,1.96.65,2.07,1.69.58,5.62-.22,11.26-2.31,16.32Z"/>
  <path d="M62.37,55.93l-10.02-24.23c-.17-.42.25-.85.67-.67l7.39,3.04c.34.14.7-.1.71-.47l.27-15.75c0-.57.79-.7,1-.17l9.07,23.89c.16.41-.25.82-.66.66l-7.15-2.65c-.34-.13-.7.13-.69.5l.4,15.64c.01.57-.77.74-.99.21Z"/>
  <path d="M41.33,57.66l-20.65-15.44c-.41-.3-.24-.95.26-1.02l7.7-1.13c.4-.06.61-.5.41-.85l-7.64-13.35c-.31-.55.36-1.12.85-.73l19.68,15.63c.38.3.23.92-.25,1.01l-7.3,1.34c-.4.07-.59.52-.38.87l8.14,12.91c.34.54-.32,1.14-.82.76Z"/>
  <path d="M41.09,84.98l-26.16-2.72c-.45-.05-.61-.61-.27-.89l6.23-5.08c.27-.22.24-.65-.07-.83l-13.79-7.76c-.48-.27-.24-1.01.31-.94l25.41,3.39c.43.06.59.59.27.88l-5.76,5.06c-.27.24-.21.67.1.83l14.02,7.11c.5.25.28,1.01-.28.95Z"/>
</svg>