<?xml version="1.0" encoding="UTF-8"?>
<svg id="Layer_1" data-name="Layer 1" xmlns="http://www.w3.org/2000/svg" viewBox="0 0 160 160">
  <path d="M112.28,108.06c-.4-3.57-1.88-7.56-4.4-11.1,2.12-3.91,4.34-9.75,4.29-17.07-.05-7.14-2.24-12.83-4.32-16.64,6.59-9.38,3.82-21.57,3.44-23.12-1.05-4.18-2.23-5.51-3.49-6.91-1.04-1.17-2.22-2.5-3.87-6.37-3.09-7.25-3.27-17.84-3.1-23.51.04-1.1-.83-2.02-1.93-2.06-1.09-.03-2.03.84-2.06,1.94-.23,7.33.19,17.65,3.41,25.19,1.91,4.49,3.38,6.14,4.57,7.47,1.07,1.2,1.78,2,2.58,5.22.15.56,3.05,12.61-3.56,20.81t-.01,0c-.64.8-1.37,1.56-2.21,2.27-5.97,5.07-13.56,4.73-17.92,3.95,1.16-.81,2.26-1.74,3.3-2.76.78-.78.79-2.04.01-2.83-.77-.78-2.04-.79-2.83,0-5.41,5.35-12.99,7.46-19.77,5.5-3.4-.99-6.25-2.91-8.48-5.29h0c-3.09-3.32-4.95-7.51-5.37-11.25-.51-4.49,1.1-7.4,3.53-11.8,1.88-3.39,4.21-7.62,6.03-13.72,2.19-7.31,2.98-15.06,2.37-23.04-.09-1.1-1.04-1.92-2.15-1.84-1.1.09-1.93,1.05-1.84,2.15.58,7.49-.16,14.75-2.21,21.59-1.7,5.68-3.82,9.53-5.7,12.93-2.5,4.52-4.65,8.42-4.01,14.18.45,4.02,2.27,8.59,5.42,12.42-2.01,3.63-4.07,9.01-4.03,15.78.05,6.56,2.08,11.79,4.04,15.31-7.84,9.49-4.84,22.79-4.44,24.41,1.05,4.18,2.23,5.51,3.49,6.91,1.04,1.17,2.22,2.5,3.87,6.38,3.1,7.24,3.27,17.83,3.1,23.5-.04,1.1.83,2.03,1.93,2.06h.07c1.07,0,1.96-.85,1.99-1.94.23-7.32-.18-17.64-3.41-25.19-1.91-4.48-3.38-6.14-4.57-7.47-1.07-1.2-1.78-1.99-2.58-5.22-.15-.57-3.25-13.46,4.28-21.65t0-.01c.1-.09.19-.19.28-.29.38-.39.78-.77,1.21-1.14,5.97-5.07,13.56-4.73,17.92-3.95-1.16.81-2.26,1.74-3.3,2.76-.78.78-.79,2.05-.01,2.83.77.79,2.04.79,2.83.02,5.41-5.36,12.99-7.47,19.77-5.5,3.8,1.09,6.91,3.37,9.24,6.14.01.01.01.02.02.03.14.17.29.35.42.53.01.01.02.01.03.03,2.35,3.04,3.78,6.58,4.14,9.8.51,4.49-1.1,7.4-3.53,11.8-1.88,3.4-4.21,7.62-6.03,13.72-2.19,7.32-2.98,15.07-2.37,23.04.09,1.05.96,1.85,2,1.85.05,0,.1,0,.15-.01,1.1-.08,1.93-1.05,1.84-2.15-.58-7.48.16-14.74,2.21-21.58,1.7-5.69,3.82-9.54,5.7-12.93,2.5-4.52,4.65-8.43,4.01-14.18ZM95.56,88.12c-5.04-1.45-10.42-1.07-15.32.94h-.01c-.08-.04-.16-.08-.25-.11-.59-.21-14.59-4.97-25.01,3.56-1.53-3.04-2.96-7.25-3-12.39-.04-5.3,1.4-9.63,2.98-12.75,2.31,1.97,5.09,3.57,8.35,4.51,2.04.59,4.14.88,6.24.88,3.08,0,6.17-.62,9.09-1.82.08.04.16.08.25.11.32.11,4.44,1.51,9.79,1.51,4.81,0,10.6-1.12,15.54-5.32.28-.24.56-.49.82-.73,1.6,3.31,3.1,7.87,3.14,13.41.04,5.68-1.46,10.36-3.11,13.76-2.52-2.46-5.69-4.46-9.5-5.56Z"/>
  <path d="M104.13,98.67c-.18-.15-.32-.33-.42-.53.14.17.29.35.42.53Z"/>
  <path d="M60.36,77.23c0,1.21-.98,2.2-2.2,2.2s-2.2-.99-2.2-2.2.98-2.2,2.2-2.2,2.2.98,2.2,2.2Z"/>
  <path d="M67.55,83.26c0,1.22-.99,2.2-2.2,2.2s-2.21-.98-2.21-2.2.99-2.2,2.21-2.2,2.2.98,2.2,2.2Z"/>
  <path d="M74.74,77.23c0,1.21-.99,2.2-2.21,2.2s-2.2-.99-2.2-2.2.99-2.2,2.2-2.2,2.21.98,2.21,2.2Z"/>
  <path d="M81.95,83.26c0,1.22-.99,2.2-2.2,2.2s-2.2-.98-2.2-2.2.98-2.2,2.2-2.2,2.2.98,2.2,2.2Z"/>
  <path d="M89.11,77.23c0,1.21-.99,2.2-2.2,2.2s-2.2-.99-2.2-2.2.98-2.2,2.2-2.2,2.2.98,2.2,2.2Z"/>
  <circle cx="94.15" cy="83.26" r="2.2"/>
  <path d="M103.48,77.23c0,1.21-.98,2.2-2.2,2.2s-2.2-.99-2.2-2.2.98-2.2,2.2-2.2,2.2.98,2.2,2.2Z"/>
  <path d="M43.23,66.41c-.38.6-1.03.93-1.69.93-.36,0-.73-.1-1.06-.3l-12.71-8c-.93-.59-1.22-1.83-.63-2.76.59-.94,1.83-1.22,2.76-.63l12.71,8c.93.59,1.21,1.83.62,2.76Z"/>
  <path d="M39.71,84.1l-11.64,2.15c-.13.03-.26.04-.39.04-.64,0-1.25-.29-1.66-.81-.48-.63-.58-1.46-.25-2.18l2.61-5.61-8.28,1.51c-1.09.19-2.13-.53-2.33-1.61-.2-1.09.52-2.13,1.61-2.33l11.88-2.16c.77-.15,1.55.15,2.04.78.49.62.58,1.46.24,2.18l-2.59,5.59,8.03-1.49c1.08-.2,2.13.52,2.33,1.6.2,1.09-.51,2.13-1.6,2.34Z"/>
  <path d="M42.91,95.24l-12.62,7.88c-.33.2-.7.3-1.06.3-.67,0-1.32-.33-1.7-.94-.58-.94-.3-2.17.64-2.75l12.63-7.88c.93-.58,2.17-.3,2.75.64.59.94.3,2.17-.64,2.75Z"/>
  <path d="M131.39,59.08l-12.71,8c-.33.21-.69.31-1.06.31-.66,0-1.31-.33-1.69-.93-.59-.94-.31-2.17.62-2.76l12.71-8c.94-.59,2.17-.31,2.76.63.59.93.31,2.16-.63,2.75Z"/>
  <path d="M141.39,77.63c-.2,1.09-1.24,1.81-2.33,1.61l-8.28-1.51,2.61,5.62c.33.7.24,1.54-.24,2.17-.41.52-1.02.82-1.67.82-.13,0-.26-.02-.39-.04l-11.64-2.16c-1.09-.2-1.8-1.24-1.6-2.33.2-1.08,1.24-1.8,2.33-1.6l8.03,1.49-2.59-5.6c-.34-.71-.24-1.55.24-2.18.49-.62,1.28-.92,2.05-.78l11.87,2.17c1.09.2,1.81,1.24,1.61,2.32Z"/>
  <path d="M131.63,102.53c-.38.61-1.03.94-1.7.94-.36,0-.73-.1-1.06-.3l-12.62-7.88c-.94-.58-1.23-1.82-.64-2.75.58-.94,1.82-1.23,2.75-.64l12.63,7.87c.94.59,1.22,1.82.64,2.76Z"/>
</svg>