<?xml version="1.0" encoding="UTF-8"?>
<svg id="Layer_1" data-name="Layer 1" xmlns="http://www.w3.org/2000/svg" viewBox="0 0 160 160">
  <defs>
    <style>
      .cls-1 {
        stroke: #000;
        stroke-miterlimit: 10;
        stroke-width: 2px;
      }
    </style>
  </defs>
  <path class="cls-1" d="M111.21,106.78c-.38-3.41-1.79-7.22-4.2-10.59,2.02-3.73,4.14-9.31,4.09-16.29-.05-6.81-2.14-12.25-4.12-15.88,6.29-8.95,3.65-20.59,3.28-22.07-1-3.99-2.13-5.26-3.33-6.6-.99-1.12-2.12-2.39-3.69-6.08-2.95-6.92-3.12-17.03-2.96-22.44.04-1.05-.79-1.93-1.84-1.97-1.04-.03-1.94.8-1.97,1.85-.22,7,.18,16.85,3.25,24.04,1.82,4.29,3.23,5.86,4.36,7.13,1.02,1.15,1.7,1.91,2.46,4.98.14.53,2.91,12.04-3.4,19.86t0,0c-.61.76-1.31,1.49-2.11,2.17-5.7,4.84-12.94,4.51-17.1,3.77,1.11-.77,2.16-1.66,3.15-2.63.74-.74.75-1.95,0-2.7-.73-.74-1.95-.75-2.7,0-5.16,5.11-12.4,7.12-18.87,5.25-3.25-.94-5.97-2.78-8.09-5.05h0c-2.95-3.17-4.72-7.17-5.13-10.74-.49-4.29,1.05-7.06,3.37-11.26,1.79-3.24,4.02-7.27,5.76-13.09,2.09-6.98,2.84-14.37,2.26-21.99-.09-1.05-.99-1.83-2.05-1.76-1.05.09-1.84,1-1.76,2.05.55,7.15-.15,14.08-2.11,20.61-1.62,5.42-3.65,9.1-5.44,12.34-2.39,4.31-4.44,8.04-3.83,13.53.43,3.84,2.17,8.2,5.17,11.85-1.92,3.46-3.88,8.6-3.85,15.06.05,6.26,1.99,11.25,3.86,14.61-7.48,9.06-4.62,21.75-4.24,23.3,1,3.99,2.13,5.26,3.33,6.6.99,1.12,2.12,2.39,3.69,6.09,2.96,6.91,3.12,17.02,2.96,22.43-.04,1.05.79,1.94,1.84,1.97h.07c1.02,0,1.87-.81,1.9-1.85.22-6.99-.17-16.84-3.25-24.04-1.82-4.28-3.23-5.86-4.36-7.13-1.02-1.15-1.7-1.9-2.46-4.98-.14-.54-3.1-12.85,4.08-20.66t0,0c.1-.09.18-.18.27-.28.36-.37.74-.73,1.15-1.09,5.7-4.84,12.94-4.51,17.1-3.77-1.11.77-2.16,1.66-3.15,2.63-.74.74-.75,1.96,0,2.7.73.75,1.95.75,2.7.02,5.16-5.12,12.4-7.13,18.87-5.25,3.63,1.04,6.6,3.22,8.82,5.86,0,0,0,.02.02.03.13.16.28.33.4.51,0,0,.02,0,.03.03,2.24,2.9,3.61,6.28,3.95,9.35.49,4.29-1.05,7.06-3.37,11.26-1.79,3.25-4.02,7.27-5.76,13.09-2.09,6.99-2.84,14.38-2.26,21.99.09,1,.92,1.77,1.91,1.77.05,0,.1,0,.14,0,1.05-.08,1.84-1,1.76-2.05-.55-7.14.15-14.07,2.11-20.6,1.62-5.43,3.65-9.11,5.44-12.34,2.39-4.31,4.44-8.05,3.83-13.53ZM95.25,87.75c-4.81-1.38-9.95-1.02-14.62.9h0c-.08-.04-.15-.08-.24-.1-.56-.2-13.93-4.74-23.87,3.4-1.46-2.9-2.83-6.92-2.86-11.83-.04-5.06,1.34-9.19,2.84-12.17,2.2,1.88,4.86,3.41,7.97,4.3,1.95.56,3.95.84,5.96.84,2.94,0,5.89-.59,8.68-1.74.08.04.15.08.24.1.31.11,4.24,1.44,9.34,1.44,4.59,0,10.12-1.07,14.83-5.08.27-.23.53-.47.78-.7,1.53,3.16,2.96,7.51,3,12.8.04,5.42-1.39,9.89-2.97,13.13-2.41-2.35-5.43-4.26-9.07-5.31Z"/>
  <path class="cls-1" d="M103.43,97.82c-.17-.14-.31-.31-.4-.51.13.16.28.33.4.51Z"/>
  <path class="cls-1" d="M61.66,77.35c0,1.15-.94,2.1-2.1,2.1s-2.1-.94-2.1-2.1.94-2.1,2.1-2.1,2.1.94,2.1,2.1Z"/>
  <path class="cls-1" d="M68.52,83.11c0,1.16-.94,2.1-2.1,2.1s-2.11-.94-2.11-2.1.94-2.1,2.11-2.1,2.1.94,2.1,2.1Z"/>
  <path class="cls-1" d="M75.38,77.35c0,1.15-.94,2.1-2.11,2.1s-2.1-.94-2.1-2.1.94-2.1,2.1-2.1,2.11.94,2.11,2.1Z"/>
  <path class="cls-1" d="M82.26,83.11c0,1.16-.94,2.1-2.1,2.1s-2.1-.94-2.1-2.1.94-2.1,2.1-2.1,2.1.94,2.1,2.1Z"/>
  <path class="cls-1" d="M89.1,77.35c0,1.15-.94,2.1-2.1,2.1s-2.1-.94-2.1-2.1.94-2.1,2.1-2.1,2.1.94,2.1,2.1Z"/>
  <circle class="cls-1" cx="93.91" cy="83.11" r="2.1"/>
  <path class="cls-1" d="M102.81,77.35c0,1.15-.94,2.1-2.1,2.1s-2.1-.94-2.1-2.1.94-2.1,2.1-2.1,2.1.94,2.1,2.1Z"/>
  <path class="cls-1" d="M45.31,67.03c-.36.57-.98.89-1.61.89-.34,0-.7-.1-1.01-.29l-12.13-7.64c-.89-.56-1.16-1.75-.6-2.63.56-.9,1.75-1.16,2.63-.6l12.13,7.64c.89.56,1.15,1.75.59,2.63Z"/>
  <path class="cls-1" d="M41.95,83.91l-11.11,2.05c-.12.03-.25.04-.37.04-.61,0-1.19-.28-1.58-.77-.46-.6-.55-1.39-.24-2.08l2.49-5.35-7.9,1.44c-1.04.18-2.03-.51-2.22-1.54-.19-1.04.5-2.03,1.54-2.22l11.34-2.06c.73-.14,1.48.14,1.95.74.47.59.55,1.39.23,2.08l-2.47,5.34,7.66-1.42c1.03-.19,2.03.5,2.22,1.53.19,1.04-.49,2.03-1.53,2.23Z"/>
  <path class="cls-1" d="M45,94.54l-12.04,7.52c-.31.19-.67.29-1.01.29-.64,0-1.26-.31-1.62-.9-.55-.9-.29-2.07.61-2.62l12.05-7.52c.89-.55,2.07-.29,2.62.61.56.9.29,2.07-.61,2.62Z"/>
  <path class="cls-1" d="M129.45,60.03l-12.13,7.64c-.31.2-.66.3-1.01.3-.63,0-1.25-.31-1.61-.89-.56-.9-.3-2.07.59-2.63l12.13-7.64c.9-.56,2.07-.3,2.63.6.56.89.3,2.06-.6,2.62Z"/>
  <path class="cls-1" d="M138.99,77.74c-.19,1.04-1.18,1.73-2.22,1.54l-7.9-1.44,2.49,5.36c.31.67.23,1.47-.23,2.07-.39.5-.97.78-1.59.78-.12,0-.25-.02-.37-.04l-11.11-2.06c-1.04-.19-1.72-1.18-1.53-2.22.19-1.03,1.18-1.72,2.22-1.53l7.66,1.42-2.47-5.34c-.32-.68-.23-1.48.23-2.08.47-.59,1.22-.88,1.96-.74l11.33,2.07c1.04.19,1.73,1.18,1.54,2.21Z"/>
  <path class="cls-1" d="M129.68,101.5c-.36.58-.98.9-1.62.9-.34,0-.7-.1-1.01-.29l-12.04-7.52c-.9-.55-1.17-1.74-.61-2.62.55-.9,1.74-1.17,2.62-.61l12.05,7.51c.9.56,1.16,1.74.61,2.63Z"/>
</svg>